<svg width="202" height="166" viewBox="0 0 202 166" fill="none" xmlns="http://www.w3.org/2000/svg">
<g filter="url(#filter0_di_50_46)">
<rect x="58" y="24.4048" width="109" height="41.438" rx="20.719" fill="#EC0E52"/>
<rect x="58" y="24.4048" width="109" height="41.438" rx="20.719" fill="url(#paint0_radial_50_46)" fill-opacity="0.7"/>
<rect x="58" y="24.4048" width="109" height="41.438" rx="20.719" fill="url(#paint1_radial_50_46)"/>
</g>
<path d="M82.4627 54V34.3636H86.5472V41.7464H86.6719C86.8509 41.3501 87.1097 40.9474 87.4485 40.5384C87.7937 40.1229 88.2411 39.7777 88.7908 39.5028C89.347 39.2216 90.0373 39.081 90.8619 39.081C91.9357 39.081 92.9265 39.3622 93.8342 39.9247C94.7418 40.4808 95.4673 41.3214 96.0107 42.4464C96.554 43.565 96.8256 44.968 96.8256 46.6555C96.8256 48.2983 96.5604 49.6854 96.0298 50.8168C95.5057 51.9418 94.7898 52.7951 93.8821 53.3768C92.9808 53.9521 91.9709 54.2397 90.8523 54.2397C90.0597 54.2397 89.3853 54.1087 88.8292 53.8466C88.2795 53.5845 87.8288 53.2553 87.4773 52.859C87.1257 52.4563 86.8573 52.0504 86.6719 51.6413H86.4897V54H82.4627ZM86.4609 46.6364C86.4609 47.5121 86.5824 48.2759 86.8253 48.9279C87.0682 49.5799 87.4198 50.0881 87.88 50.4524C88.3402 50.8104 88.8995 50.9893 89.5579 50.9893C90.2227 50.9893 90.7852 50.8072 91.2454 50.4428C91.7056 50.0721 92.054 49.5607 92.2905 48.9087C92.5334 48.2504 92.6548 47.4929 92.6548 46.6364C92.6548 45.7862 92.5366 45.0384 92.3001 44.3928C92.0636 43.7472 91.7152 43.2422 91.255 42.8778C90.7948 42.5135 90.2291 42.3313 89.5579 42.3313C88.8931 42.3313 88.3306 42.5071 87.8704 42.8587C87.4166 43.2102 87.0682 43.7088 86.8253 44.3544C86.5824 45 86.4609 45.7607 86.4609 46.6364ZM103.751 54.2781C102.811 54.2781 101.974 54.1151 101.239 53.7891C100.503 53.4567 99.9218 52.9677 99.4935 52.3221C99.0717 51.6701 98.8607 50.8583 98.8607 49.8867C98.8607 49.0685 99.0109 48.3814 99.3114 47.8253C99.6118 47.2692 100.021 46.8217 100.539 46.483C101.056 46.1442 101.644 45.8885 102.303 45.7159C102.968 45.5433 103.664 45.4219 104.393 45.3516C105.25 45.2621 105.94 45.179 106.464 45.1023C106.988 45.0192 107.369 44.8977 107.605 44.7379C107.842 44.5781 107.96 44.3416 107.96 44.0284V43.9709C107.96 43.3636 107.768 42.8938 107.385 42.5614C107.007 42.229 106.47 42.0629 105.774 42.0629C105.039 42.0629 104.454 42.2259 104.019 42.5518C103.584 42.8714 103.297 43.2741 103.156 43.7599L99.3785 43.4531C99.5702 42.5582 99.9474 41.7848 100.51 41.1328C101.072 40.4744 101.798 39.9695 102.686 39.6179C103.581 39.2599 104.617 39.081 105.793 39.081C106.611 39.081 107.394 39.1768 108.142 39.3686C108.896 39.5604 109.564 39.8576 110.146 40.2603C110.734 40.663 111.197 41.1808 111.536 41.8136C111.875 42.44 112.044 43.1911 112.044 44.0668V54H108.171V51.9577H108.056C107.819 52.418 107.503 52.8239 107.106 53.1754C106.71 53.5206 106.234 53.7923 105.678 53.9904C105.122 54.1822 104.479 54.2781 103.751 54.2781ZM104.92 51.4592C105.521 51.4592 106.052 51.3409 106.512 51.1044C106.972 50.8615 107.333 50.5355 107.595 50.1264C107.858 49.7173 107.989 49.2539 107.989 48.7362V47.1733C107.861 47.2564 107.685 47.3331 107.461 47.4034C107.244 47.4673 106.998 47.5281 106.723 47.5856C106.448 47.6367 106.173 47.6847 105.898 47.7294C105.624 47.7678 105.374 47.8029 105.15 47.8349C104.671 47.9052 104.252 48.017 103.894 48.1705C103.536 48.3239 103.258 48.5316 103.06 48.7937C102.862 49.0494 102.763 49.369 102.763 49.7525C102.763 50.3086 102.964 50.7337 103.367 51.0277C103.776 51.3153 104.294 51.4592 104.92 51.4592ZM121.867 54.2876C120.359 54.2876 119.061 53.968 117.975 53.3288C116.894 52.6832 116.063 51.7884 115.482 50.6442C114.906 49.5 114.619 48.1832 114.619 46.6939C114.619 45.1854 114.91 43.8622 115.491 42.7244C116.079 41.5803 116.913 40.6886 117.994 40.0494C119.074 39.4038 120.359 39.081 121.848 39.081C123.133 39.081 124.258 39.3143 125.223 39.7809C126.188 40.2475 126.952 40.9027 127.515 41.7464C128.077 42.5902 128.387 43.581 128.445 44.7188H124.59C124.482 43.9837 124.194 43.3924 123.727 42.945C123.267 42.4911 122.663 42.2642 121.915 42.2642C121.282 42.2642 120.73 42.4368 120.256 42.782C119.79 43.1207 119.426 43.6161 119.163 44.2681C118.901 44.9201 118.77 45.7095 118.77 46.6364C118.77 47.576 118.898 48.375 119.154 49.0334C119.416 49.6918 119.783 50.1935 120.256 50.5387C120.73 50.8839 121.282 51.0565 121.915 51.0565C122.382 51.0565 122.801 50.9606 123.171 50.7688C123.548 50.5771 123.858 50.299 124.101 49.9347C124.351 49.5639 124.514 49.1197 124.59 48.6019H128.445C128.381 49.7269 128.074 50.7177 127.524 51.5742C126.981 52.4244 126.23 53.0891 125.271 53.5685C124.312 54.0479 123.178 54.2876 121.867 54.2876ZM134.761 49.7621L134.77 44.8626H135.365L140.082 39.2727H144.771L138.433 46.6747H137.465L134.761 49.7621ZM131.06 54V34.3636H135.144V54H131.06ZM140.264 54L135.931 47.5856L138.654 44.6996L145.049 54H140.264Z" fill="#09173E"/>
<defs>
<filter id="filter0_di_50_46" x="0" y="0.404785" width="233" height="165.438" filterUnits="userSpaceOnUse" color-interpolation-filters="sRGB">
<feFlood flood-opacity="0" result="BackgroundImageFix"/>
<feColorMatrix in="SourceAlpha" type="matrix" values="0 0 0 0 0 0 0 0 0 0 0 0 0 0 0 0 0 0 127 0" result="hardAlpha"/>
<feOffset dx="4" dy="38"/>
<feGaussianBlur stdDeviation="31"/>
<feColorMatrix type="matrix" values="0 0 0 0 0 0 0 0 0 0 0 0 0 0 0 0 0 0 0.5 0"/>
<feBlend mode="normal" in2="BackgroundImageFix" result="effect1_dropShadow_50_46"/>
<feBlend mode="normal" in="SourceGraphic" in2="effect1_dropShadow_50_46" result="shape"/>
<feColorMatrix in="SourceAlpha" type="matrix" values="0 0 0 0 0 0 0 0 0 0 0 0 0 0 0 0 0 0 127 0" result="hardAlpha"/>
<feOffset dx="-3" dy="-4"/>
<feGaussianBlur stdDeviation="3.5"/>
<feComposite in2="hardAlpha" operator="arithmetic" k2="-1" k3="1"/>
<feColorMatrix type="matrix" values="0 0 0 0 1 0 0 0 0 1 0 0 0 0 1 0 0 0 0.15 0"/>
<feBlend mode="normal" in2="shape" result="effect2_innerShadow_50_46"/>
</filter>
<radialGradient id="paint0_radial_50_46" cx="0" cy="0" r="1" gradientUnits="userSpaceOnUse" gradientTransform="translate(86.7639 33.0377) rotate(25.1831) scale(63.5699 50.0678)">
<stop stop-color="white" stop-opacity="0.59"/>
<stop offset="0.697917" stop-color="white" stop-opacity="0"/>
<stop offset="1" stop-color="white" stop-opacity="0"/>
</radialGradient>
<radialGradient id="paint1_radial_50_46" cx="0" cy="0" r="1" gradientUnits="userSpaceOnUse" gradientTransform="translate(152.068 60.6631) rotate(-99.578) scale(35.8953 102.743)">
<stop stop-opacity="0.23"/>
<stop offset="0.861815" stop-opacity="0"/>
</radialGradient>
</defs>
</svg>
