<svg width="118" height="34" viewBox="0 0 118 34" fill="none" xmlns="http://www.w3.org/2000/svg">
<rect x="1" y="3" width="116" height="28" rx="14" fill="#09173E"/>
<path d="M21.9594 11.0909L23.2272 19.3793H23.3284L27.3394 11.0909H29.8962L24.3245 22H21.3522L19.3973 11.0909H21.9594ZM29.3556 22L30.7192 13.8182H32.9884L31.6247 22H29.3556ZM32.0882 12.7528C31.7508 12.7528 31.472 12.641 31.2519 12.4173C31.0352 12.19 30.9465 11.9201 30.9855 11.6076C31.0246 11.288 31.1773 11.0181 31.4436 10.7979C31.71 10.5742 32.0118 10.4624 32.3492 10.4624C32.6865 10.4624 32.9617 10.5742 33.1748 10.7979C33.3879 11.0181 33.4767 11.288 33.4411 11.6076C33.4056 11.9201 33.2547 12.19 32.9884 12.4173C32.7256 12.641 32.4255 12.7528 32.0882 12.7528ZM37.1499 22.1598C36.3118 22.1598 35.6175 21.9893 35.0671 21.6484C34.5167 21.304 34.1296 20.8175 33.9059 20.1889C33.6857 19.5568 33.6484 18.8093 33.794 17.9464C33.9361 17.1048 34.2219 16.3661 34.6516 15.7305C35.0849 15.0948 35.6282 14.5994 36.2816 14.2443C36.935 13.8892 37.663 13.7116 38.4656 13.7116C39.0053 13.7116 39.4936 13.7987 39.9304 13.9727C40.3707 14.1431 40.7365 14.4023 41.0277 14.7504C41.3189 15.0948 41.5178 15.5263 41.6243 16.0447C41.7344 16.5632 41.7326 17.1705 41.619 17.8665L41.5178 18.4897H34.6143L34.8327 17.0835H39.6055C39.6587 16.7567 39.6374 16.4673 39.5415 16.2152C39.4457 15.9631 39.2859 15.766 39.0621 15.6239C38.8384 15.4783 38.5632 15.4055 38.2365 15.4055C37.9027 15.4055 37.5902 15.4872 37.299 15.6506C37.0078 15.8139 36.7628 16.0288 36.5639 16.2951C36.3686 16.5579 36.2425 16.8437 36.1857 17.1527L35.9354 18.5483C35.8643 18.978 35.8786 19.3349 35.978 19.619C36.081 19.9031 36.2585 20.1161 36.5107 20.2582C36.7628 20.3967 37.0824 20.4659 37.4695 20.4659C37.7216 20.4659 37.9577 20.4304 38.1779 20.3594C38.4016 20.2884 38.6005 20.1836 38.7745 20.0451C38.9485 19.9031 39.0906 19.7273 39.2006 19.5178L41.2727 19.6562C41.081 20.1605 40.7898 20.6009 40.3991 20.9773C40.0085 21.3501 39.538 21.6413 38.9876 21.8509C38.4407 22.0568 37.8281 22.1598 37.1499 22.1598ZM43.9774 22L43.1144 13.8182H45.4102L45.7618 19.3153H45.8364L48.0736 13.8182H50.3268L50.7529 19.2834H50.8222L52.9848 13.8182H55.2753L51.6904 22H49.2881L48.7341 16.8544H48.6329L46.3744 22H43.9774ZM69.4284 14.9102H67.1272C67.1343 14.6048 67.0953 14.3349 67.01 14.1005C66.9248 13.8626 66.797 13.6602 66.6265 13.4933C66.4596 13.3263 66.2554 13.2003 66.0139 13.1151C65.7725 13.0263 65.5008 12.9819 65.199 12.9819C64.6166 12.9819 64.0821 13.1275 63.5956 13.4187C63.1091 13.7099 62.699 14.1325 62.3651 14.6864C62.0313 15.2369 61.8005 15.9027 61.6727 16.6839C61.5484 17.4368 61.5555 18.0671 61.694 18.5749C61.8325 19.0827 62.0775 19.4663 62.4291 19.7255C62.7842 19.9812 63.2263 20.109 63.7554 20.109C64.0821 20.109 64.3928 20.0682 64.6876 19.9865C64.9823 19.9013 65.2504 19.7805 65.4919 19.6243C65.7369 19.4645 65.95 19.271 66.1311 19.0437C66.3158 18.8164 66.4596 18.5589 66.5626 18.2713H68.8797C68.7341 18.772 68.5068 19.255 68.1979 19.7202C67.8925 20.1854 67.5143 20.6009 67.0633 20.9666C66.6123 21.3288 66.0992 21.6165 65.5239 21.8295C64.9486 22.0426 64.3183 22.1491 63.6329 22.1491C62.6421 22.1491 61.7916 21.9219 61.0814 21.4673C60.3747 21.0128 59.8651 20.3576 59.5526 19.5018C59.2401 18.646 59.1816 17.6143 59.3769 16.407C59.5722 15.2386 59.9539 14.2479 60.5221 13.4347C61.0938 12.6179 61.7881 11.9982 62.6048 11.5756C63.4252 11.1531 64.3023 10.9418 65.2362 10.9418C65.8861 10.9418 66.4738 11.0305 66.9994 11.2081C67.5249 11.3857 67.9724 11.6449 68.3417 11.9858C68.7146 12.3232 68.9951 12.7369 69.1833 13.2269C69.3715 13.717 69.4532 14.2781 69.4284 14.9102ZM72.9413 17.2699L72.153 22H69.8891L71.7002 11.0909H73.9001L73.2183 15.2617H73.3089C73.5716 14.7788 73.9321 14.4006 74.3902 14.1271C74.8483 13.8501 75.3898 13.7116 76.0148 13.7116C76.583 13.7116 77.0571 13.8359 77.4371 14.0845C77.8206 14.3295 78.0922 14.6829 78.252 15.1445C78.4118 15.6026 78.4385 16.1513 78.3319 16.7905L77.4584 22H75.1945L75.9935 17.1953C76.0752 16.6911 76.0095 16.2987 75.7964 16.0181C75.5869 15.7376 75.2531 15.5973 74.795 15.5973C74.4861 15.5973 74.202 15.663 73.9427 15.7944C73.6835 15.9258 73.4651 16.1175 73.2876 16.3697C73.1135 16.6183 72.9981 16.9183 72.9413 17.2699ZM81.5453 22.1545C81.0268 22.1545 80.5776 22.0639 80.1976 21.8828C79.8212 21.6982 79.5442 21.4247 79.3667 21.0625C79.1891 20.7003 79.1447 20.2511 79.2335 19.7148C79.3116 19.2603 79.459 18.8803 79.6756 18.5749C79.8958 18.266 80.1639 18.0174 80.4799 17.8292C80.796 17.641 81.1458 17.4972 81.5293 17.3977C81.9164 17.2983 82.3159 17.2308 82.7278 17.1953C83.2037 17.1456 83.5907 17.0977 83.889 17.0515C84.1909 17.0053 84.4164 16.9396 84.5655 16.8544C84.7147 16.7656 84.8052 16.6342 84.8372 16.4602V16.4283C84.8904 16.0945 84.8283 15.8352 84.6507 15.6506C84.4767 15.4624 84.198 15.3683 83.8145 15.3683C83.4096 15.3683 83.0652 15.457 82.7811 15.6346C82.5005 15.8121 82.2999 16.0376 82.1792 16.3111L80.1124 16.1406C80.2971 15.6435 80.5758 15.2138 80.9487 14.8516C81.3251 14.4858 81.7779 14.2053 82.307 14.0099C82.8361 13.8111 83.4292 13.7116 84.0861 13.7116C84.5407 13.7116 84.965 13.7649 85.3592 13.8714C85.7569 13.978 86.0996 14.1431 86.3873 14.3668C86.6784 14.5906 86.888 14.8782 87.0158 15.2298C87.1472 15.5778 87.1738 15.995 87.0957 16.4815L86.1742 22H84.0222L84.214 20.8654H84.15C83.976 21.1211 83.763 21.3466 83.5108 21.5419C83.2587 21.7337 82.9693 21.8846 82.6426 21.9947C82.3159 22.1012 81.9501 22.1545 81.5453 22.1545ZM82.4561 20.5884C82.7864 20.5884 83.09 20.5227 83.367 20.3913C83.6475 20.2564 83.8784 20.0753 84.0595 19.848C84.2441 19.6207 84.3613 19.3633 84.411 19.0756L84.5495 18.2074C84.4785 18.2536 84.3755 18.2944 84.2406 18.3299C84.1092 18.3654 83.9654 18.3991 83.8091 18.4311C83.6564 18.4595 83.502 18.4862 83.3457 18.511C83.1895 18.5323 83.0492 18.5536 82.9249 18.5749C82.6515 18.614 82.4064 18.6761 82.1898 18.7614C81.9732 18.8466 81.7974 18.962 81.6625 19.1076C81.5275 19.2496 81.4441 19.4272 81.4121 19.6403C81.3624 19.9492 81.4352 20.1854 81.6305 20.3487C81.8294 20.5085 82.1046 20.5884 82.4561 20.5884ZM87.9347 22L89.2983 13.8182H91.4982L91.2585 15.2457H91.3438C91.5781 14.7379 91.8924 14.3544 92.2866 14.0952C92.6843 13.8324 93.1122 13.701 93.5703 13.701C93.6839 13.701 93.8029 13.7081 93.9272 13.7223C94.055 13.733 94.1687 13.7507 94.2681 13.7756L93.9272 15.7944C93.8278 15.7589 93.6857 15.7305 93.5011 15.7092C93.32 15.6843 93.1477 15.6719 92.9844 15.6719C92.6541 15.6719 92.3469 15.7447 92.0629 15.8903C91.7788 16.0323 91.5391 16.2312 91.3438 16.4869C91.152 16.7425 91.0259 17.0373 90.9656 17.3711L90.2038 22H87.9347ZM100.198 13.8182L99.9157 15.5227H94.9832L95.2709 13.8182H100.198ZM96.7091 11.858H98.9782L97.7105 19.4858C97.675 19.6953 97.6803 19.8587 97.7265 19.9759C97.7726 20.0895 97.849 20.1694 97.9555 20.2156C98.0656 20.2617 98.197 20.2848 98.3497 20.2848C98.4562 20.2848 98.5645 20.2759 98.6746 20.2582C98.7847 20.2369 98.8682 20.2209 98.925 20.2102L99.0102 21.8988C98.8824 21.9379 98.7101 21.9805 98.4935 22.0266C98.2805 22.0728 98.0283 22.1012 97.7371 22.1119C97.1831 22.1332 96.7144 22.0604 96.3309 21.8935C95.9474 21.723 95.6721 21.462 95.5052 21.1104C95.3383 20.7589 95.3028 20.3168 95.3987 19.7841L96.7091 11.858Z" fill="white"/>
</svg>
