<svg width="118" height="34" viewBox="0 0 118 34" fill="none" xmlns="http://www.w3.org/2000/svg">
<rect x="1" y="3" width="116" height="28" rx="14" fill="#FDF2E0"/>
<path d="M23.893 11.0909L25.1608 19.3793H25.262L29.273 11.0909H31.8298L26.2581 22H23.2858L21.3309 11.0909H23.893ZM31.2892 22L32.6528 13.8182H34.922L33.5583 22H31.2892ZM34.0218 12.7528C33.6844 12.7528 33.4056 12.641 33.1855 12.4173C32.9688 12.19 32.8801 11.9201 32.9191 11.6076C32.9582 11.288 33.1109 11.0181 33.3772 10.7979C33.6436 10.5742 33.9454 10.4624 34.2828 10.4624C34.6201 10.4624 34.8953 10.5742 35.1084 10.7979C35.3215 11.0181 35.4102 11.288 35.3747 11.6076C35.3392 11.9201 35.1883 12.19 34.922 12.4173C34.6592 12.641 34.3591 12.7528 34.0218 12.7528ZM39.0835 22.1598C38.2454 22.1598 37.5511 21.9893 37.0007 21.6484C36.4503 21.304 36.0632 20.8175 35.8395 20.1889C35.6193 19.5568 35.582 18.8093 35.7276 17.9464C35.8697 17.1048 36.1555 16.3661 36.5852 15.7305C37.0185 15.0948 37.5618 14.5994 38.2152 14.2443C38.8686 13.8892 39.5966 13.7116 40.3991 13.7116C40.9389 13.7116 41.4272 13.7987 41.864 13.9727C42.3043 14.1431 42.6701 14.4023 42.9613 14.7504C43.2525 15.0948 43.4513 15.5263 43.5579 16.0447C43.668 16.5632 43.6662 17.1705 43.5526 17.8665L43.4513 18.4897H36.5479L36.7663 17.0835H41.5391C41.5923 16.7567 41.571 16.4673 41.4751 16.2152C41.3793 15.9631 41.2195 15.766 40.9957 15.6239C40.772 15.4783 40.4968 15.4055 40.1701 15.4055C39.8363 15.4055 39.5238 15.4872 39.2326 15.6506C38.9414 15.8139 38.6964 16.0288 38.4975 16.2951C38.3022 16.5579 38.1761 16.8437 38.1193 17.1527L37.869 18.5483C37.7979 18.978 37.8121 19.3349 37.9116 19.619C38.0146 19.9031 38.1921 20.1161 38.4442 20.2582C38.6964 20.3967 39.016 20.4659 39.4031 20.4659C39.6552 20.4659 39.8913 20.4304 40.1115 20.3594C40.3352 20.2884 40.5341 20.1836 40.7081 20.0451C40.8821 19.9031 41.0241 19.7273 41.1342 19.5178L43.2063 19.6562C43.0146 20.1605 42.7234 20.6009 42.3327 20.9773C41.9421 21.3501 41.4716 21.6413 40.9212 21.8509C40.3743 22.0568 39.7617 22.1598 39.0835 22.1598ZM45.911 22L45.048 13.8182H47.3438L47.6954 19.3153H47.77L50.0072 13.8182H52.2604L52.6865 19.2834H52.7558L54.9184 13.8182H57.2089L53.624 22H51.2217L50.6677 16.8544H50.5665L48.308 22H45.911ZM67.7664 14.2603C67.7842 13.8164 67.6546 13.4737 67.3776 13.2322C67.1041 12.9908 66.6904 12.87 66.1365 12.87C65.76 12.87 65.4333 12.9233 65.1563 13.0298C64.8794 13.1328 64.6574 13.2766 64.4905 13.4613C64.3271 13.6424 64.2259 13.8519 64.1869 14.0898C64.1478 14.2852 64.1602 14.4556 64.2242 14.6012C64.2916 14.7468 64.3964 14.8729 64.5384 14.9794C64.684 15.0824 64.8563 15.1729 65.0551 15.2511C65.254 15.3256 65.4653 15.3896 65.689 15.4428L66.6265 15.6772C67.0846 15.7837 67.4965 15.9258 67.8623 16.1033C68.2316 16.2809 68.5406 16.4993 68.7892 16.7585C69.0413 17.0178 69.2188 17.3232 69.3218 17.6747C69.4248 18.0263 69.439 18.4293 69.3644 18.8839C69.2508 19.5515 68.9862 20.1303 68.5708 20.6204C68.1553 21.1069 67.6102 21.4851 66.9355 21.755C66.2607 22.0213 65.4795 22.1545 64.5917 22.1545C63.711 22.1545 62.9671 22.0195 62.3598 21.7496C61.7526 21.4798 61.3105 21.0803 61.0335 20.5511C60.76 20.0185 60.6784 19.3597 60.7884 18.5749H63.0203C62.9813 18.9407 63.0345 19.2461 63.1801 19.4911C63.3293 19.7326 63.5512 19.9155 63.846 20.0398C64.1407 20.1605 64.4869 20.2209 64.8847 20.2209C65.2789 20.2209 65.6286 20.1641 65.934 20.0504C66.243 19.9368 66.4933 19.7788 66.6851 19.5763C66.8769 19.3739 66.9941 19.1413 67.0367 18.8786C67.0793 18.6335 67.042 18.4276 66.9248 18.2607C66.8076 18.0937 66.6194 17.9517 66.3602 17.8345C66.1045 17.7138 65.7867 17.6072 65.4067 17.5149L64.2668 17.2166C63.3861 16.9929 62.7203 16.6431 62.2693 16.1673C61.8183 15.6914 61.6567 15.0504 61.7845 14.2443C61.8982 13.5838 62.1734 13.0067 62.6102 12.5131C63.0505 12.016 63.6045 11.6307 64.2721 11.3572C64.9433 11.0803 65.6766 10.9418 66.472 10.9418C67.2817 10.9418 67.9653 11.082 68.5228 11.3626C69.0803 11.6396 69.4869 12.0266 69.7426 12.5238C69.9983 13.021 70.0764 13.5998 69.977 14.2603H67.7664ZM74.0639 22.1598C73.2294 22.1598 72.5387 21.9822 71.9918 21.6271C71.445 21.2685 71.0597 20.7713 70.8359 20.1357C70.6158 19.4964 70.5749 18.7525 70.7134 17.9038C70.8484 17.0657 71.1289 16.3324 71.555 15.7038C71.9812 15.0753 72.5227 14.587 73.1797 14.239C73.8366 13.8874 74.5771 13.7116 75.4009 13.7116C76.2319 13.7116 76.9208 13.891 77.4677 14.2496C78.0146 14.6048 78.3999 15.1019 78.6236 15.7411C78.8473 16.3803 78.8899 17.1243 78.7514 17.973C78.6129 18.8075 78.3288 19.5391 77.8991 20.1676C77.4695 20.7962 76.9279 21.2862 76.2745 21.6378C75.6211 21.9858 74.8842 22.1598 74.0639 22.1598ZM74.2876 20.402C74.6712 20.402 75.0103 20.2937 75.305 20.0771C75.6033 19.8569 75.8501 19.5586 76.0455 19.1822C76.2443 18.8022 76.3828 18.3725 76.4609 17.8931C76.5391 17.4208 76.5444 17.0018 76.4769 16.636C76.4094 16.2667 76.2674 15.9755 76.0508 15.7624C75.8377 15.5494 75.5447 15.4428 75.1719 15.4428C74.7884 15.4428 74.4474 15.5529 74.1491 15.7731C73.8509 15.9897 73.604 16.288 73.4087 16.668C73.2134 17.0479 73.0767 17.4794 72.9986 17.9624C72.924 18.4311 72.9187 18.8501 72.9826 19.2195C73.0465 19.5852 73.1868 19.8746 73.4034 20.0877C73.62 20.2972 73.9148 20.402 74.2876 20.402ZM82.6239 17.2699L81.8356 22H79.5717L80.9354 13.8182H83.0927L82.8583 15.2617H82.9489C83.2081 14.7823 83.5739 14.4041 84.0462 14.1271C84.522 13.8501 85.0636 13.7116 85.6708 13.7116C86.239 13.7116 86.7131 13.8359 87.093 14.0845C87.4766 14.3331 87.7464 14.6864 87.9027 15.1445C88.0625 15.6026 88.0891 16.1513 87.9826 16.7905L87.109 22H84.8398L85.6442 17.1953C85.7259 16.6946 85.6619 16.304 85.4524 16.0234C85.2464 15.7393 84.9144 15.5973 84.4563 15.5973C84.1509 15.5973 83.8704 15.663 83.6147 15.7944C83.359 15.9258 83.1442 16.1175 82.9702 16.3697C82.7997 16.6183 82.6843 16.9183 82.6239 17.2699ZM92.0615 25.2386C91.3229 25.2386 90.7068 25.1374 90.2132 24.935C89.7231 24.7362 89.3502 24.4645 89.0945 24.12C88.8424 23.7756 88.7039 23.3885 88.6791 22.9588L90.8311 22.6765C90.8701 22.8434 90.9447 22.9979 91.0548 23.1399C91.1684 23.282 91.33 23.3956 91.5395 23.4808C91.7526 23.5661 92.0278 23.6087 92.3651 23.6087C92.8588 23.6087 93.2884 23.4879 93.6542 23.2464C94.02 23.0085 94.2455 22.609 94.3307 22.0479L94.5757 20.5511H94.4798C94.3449 20.7784 94.1602 20.9933 93.9259 21.1957C93.695 21.3981 93.4127 21.5632 93.0789 21.6911C92.7487 21.8189 92.3669 21.8828 91.9337 21.8828C91.3158 21.8828 90.7796 21.7408 90.325 21.4567C89.874 21.169 89.5473 20.7305 89.3449 20.141C89.146 19.5479 89.1212 18.7987 89.2703 17.8931C89.4266 16.9663 89.7071 16.1921 90.1119 15.5707C90.5168 14.9492 90.9962 14.484 91.5502 14.1751C92.1041 13.8661 92.6812 13.7116 93.2813 13.7116C93.7394 13.7116 94.1088 13.7898 94.3893 13.946C94.6734 14.0987 94.8918 14.2905 95.0445 14.5213C95.1972 14.7486 95.3055 14.9723 95.3694 15.1925H95.46L95.6837 13.8182H97.9369L96.5626 22.0799C96.4525 22.7795 96.1879 23.3619 95.7689 23.8271C95.3534 24.2958 94.8261 24.6474 94.1869 24.8817C93.5477 25.1197 92.8392 25.2386 92.0615 25.2386ZM92.9138 20.1783C93.276 20.1783 93.6009 20.0877 93.8886 19.9066C94.1798 19.7219 94.423 19.4592 94.6183 19.1183C94.8137 18.7738 94.9504 18.3619 95.0285 17.8825C95.1066 17.4031 95.1048 16.9876 95.0232 16.636C94.945 16.2809 94.7923 16.0057 94.5651 15.8104C94.3414 15.6151 94.0466 15.5174 93.6808 15.5174C93.3044 15.5174 92.9742 15.6186 92.6901 15.821C92.406 16.0199 92.1698 16.2969 91.9816 16.652C91.797 17.0071 91.6673 17.4173 91.5928 17.8825C91.5146 18.3548 91.5111 18.7631 91.5821 19.1076C91.6567 19.4485 91.8041 19.7131 92.0242 19.9013C92.2444 20.0859 92.5409 20.1783 92.9138 20.1783Z" fill="#09173E"/>
</svg>
