<svg width="155" height="57" viewBox="0 0 155 57" fill="none" xmlns="http://www.w3.org/2000/svg">
<rect x="1" y="5" width="153" height="47" rx="23.5" fill="#D9D9D9"/>
<path d="M36.2169 38H32.0976L41.3927 19.8182H46.3465L49.5958 38H45.4765L43.2659 23.973H43.1239L36.2169 38ZM37.158 30.8533H46.8881L46.3732 33.854H36.6431L37.158 30.8533ZM51.7842 38L54.8027 19.8182H62.0825C63.4201 19.8182 64.5032 20.0165 65.3318 20.413C66.1663 20.8095 66.7493 21.36 67.0807 22.0643C67.4122 22.7627 67.501 23.5676 67.3471 24.479C67.2228 25.1893 66.9713 25.8107 66.5925 26.3434C66.2196 26.8761 65.7579 27.314 65.2075 27.6573C64.6571 28.0006 64.0593 28.2433 63.4142 28.3853L63.3787 28.5629C64.0652 28.5924 64.6837 28.7878 65.2342 29.1488C65.7846 29.5039 66.1959 30.007 66.4682 30.658C66.7404 31.3091 66.8026 32.0814 66.6546 32.9751C66.4948 33.9399 66.1131 34.801 65.5094 35.5586C64.9057 36.3103 64.1007 36.9051 63.0946 37.343C62.0944 37.781 60.9136 38 59.5523 38H51.7842ZM56.161 34.8572H59.2949C60.3602 34.8572 61.174 34.6501 61.7363 34.2358C62.2985 33.8215 62.6359 33.274 62.7484 32.5934C62.8253 32.0903 62.775 31.6464 62.5974 31.2617C62.4258 30.877 62.1328 30.5752 61.7185 30.3562C61.3101 30.1372 60.7923 30.0277 60.1649 30.0277H56.9511L56.161 34.8572ZM57.395 27.4265H60.2448C60.7656 27.4265 61.248 27.3348 61.6919 27.1513C62.1417 26.9619 62.5116 26.6955 62.8016 26.3523C63.0976 26.0031 63.284 25.5917 63.3609 25.1183C63.4675 24.4554 63.3195 23.9257 62.917 23.5291C62.5205 23.1267 61.899 22.9254 61.0527 22.9254H58.1408L57.395 27.4265ZM86.4944 29.1577C86.1629 31.099 85.5208 32.7473 84.5679 34.1026C83.6209 35.458 82.4638 36.4878 81.0966 37.1921C79.7354 37.8964 78.2676 38.2486 76.6932 38.2486C75.0419 38.2486 73.6185 37.8728 72.423 37.1211C71.2334 36.3694 70.3722 35.2834 69.8395 33.8629C69.3069 32.4366 69.2062 30.7172 69.5377 28.7049C69.8573 26.7577 70.4935 25.1064 71.4464 23.7511C72.3993 22.3898 73.5623 21.354 74.9354 20.6438C76.3085 19.9277 77.7852 19.5696 79.3655 19.5696C81.0049 19.5696 82.4194 19.9484 83.6091 20.706C84.8046 21.4635 85.6658 22.5585 86.1925 23.9908C86.7252 25.4171 86.8258 27.1394 86.4944 29.1577ZM82.668 28.7049C82.8752 27.4561 82.8663 26.4085 82.6414 25.5621C82.4224 24.7099 82.0199 24.0647 81.434 23.6268C80.8481 23.1888 80.1082 22.9698 79.2145 22.9698C78.2439 22.9698 77.3531 23.2125 76.5423 23.6978C75.7374 24.1831 75.0567 24.8874 74.5004 25.8107C73.95 26.7281 73.5682 27.8437 73.3552 29.1577C73.1421 30.4124 73.148 31.46 73.3729 32.3004C73.6037 33.1409 74.0151 33.7771 74.6069 34.2092C75.2047 34.6353 75.9475 34.8484 76.8353 34.8484C77.8 34.8484 78.6819 34.6116 79.4809 34.1381C80.2858 33.6587 80.9635 32.9633 81.5139 32.0518C82.0643 31.1345 82.449 30.0188 82.668 28.7049ZM102.117 19.8182H105.961L104.008 31.6257C103.789 32.9515 103.283 34.1115 102.49 35.1058C101.697 36.1001 100.688 36.8755 99.4627 37.4318C98.2375 37.9822 96.8703 38.2575 95.3611 38.2575C93.8519 38.2575 92.5794 37.9822 91.5436 37.4318C90.5079 36.8755 89.7592 36.1001 89.2975 35.1058C88.8359 34.1115 88.7146 32.9515 88.9335 31.6257L90.8867 19.8182H94.7308L92.822 31.2972C92.7155 31.9897 92.7688 32.6052 92.9818 33.1438C93.2008 33.6824 93.5619 34.1056 94.0649 34.4134C94.568 34.7211 95.1895 34.875 95.9293 34.875C96.675 34.875 97.3497 34.7211 97.9534 34.4134C98.563 34.1056 99.0632 33.6824 99.4538 33.1438C99.8503 32.6052 100.102 31.9897 100.208 31.2972L102.117 19.8182ZM107.899 22.9876L108.432 19.8182H123.364L122.831 22.9876H117.265L114.779 38H110.979L113.465 22.9876H107.899Z" fill="#09173E"/>
</svg>
