<svg width="198" height="164" viewBox="0 0 198 164" fill="none" xmlns="http://www.w3.org/2000/svg">
<g filter="url(#filter0_di_42_54)">
<rect x="23" y="22.4048" width="109" height="41.438" rx="20.719" fill="#EC0E52"/>
<rect x="23" y="22.4048" width="109" height="41.438" rx="20.719" fill="url(#paint0_radial_42_54)" fill-opacity="0.7"/>
<rect x="23" y="22.4048" width="109" height="41.438" rx="20.719" fill="url(#paint1_radial_42_54)"/>
</g>
<path d="M47.4628 52V32.3636H51.5473V39.7464H51.6719C51.8509 39.3501 52.1098 38.9474 52.4485 38.5384C52.7937 38.1229 53.2412 37.7777 53.7909 37.5028C54.347 37.2216 55.0373 37.081 55.8619 37.081C56.9358 37.081 57.9265 37.3622 58.8342 37.9247C59.7419 38.4808 60.4674 39.3214 61.0107 40.4464C61.554 41.565 61.8257 42.968 61.8257 44.6555C61.8257 46.2983 61.5604 47.6854 61.0299 48.8168C60.5057 49.9418 59.7898 50.7951 58.8821 51.3768C57.9809 51.9521 56.9709 52.2397 55.8523 52.2397C55.0597 52.2397 54.3853 52.1087 53.8292 51.8466C53.2795 51.5845 52.8289 51.2553 52.4773 50.859C52.1258 50.4563 51.8573 50.0504 51.6719 49.6413H51.4897V52H47.4628ZM51.461 44.6364C51.461 45.5121 51.5824 46.2759 51.8253 46.9279C52.0682 47.5799 52.4198 48.0881 52.88 48.4524C53.3402 48.8104 53.8995 48.9893 54.5579 48.9893C55.2227 48.9893 55.7852 48.8072 56.2454 48.4428C56.7057 48.0721 57.054 47.5607 57.2905 46.9087C57.5334 46.2504 57.6549 45.4929 57.6549 44.6364C57.6549 43.7862 57.5366 43.0384 57.3001 42.3928C57.0636 41.7472 56.7152 41.2422 56.255 40.8778C55.7948 40.5135 55.2291 40.3313 54.5579 40.3313C53.8932 40.3313 53.3307 40.5071 52.8704 40.8587C52.4166 41.2102 52.0682 41.7088 51.8253 42.3544C51.5824 43 51.461 43.7607 51.461 44.6364ZM68.7507 52.2781C67.811 52.2781 66.9737 52.1151 66.2386 51.7891C65.5035 51.4567 64.9218 50.9677 64.4936 50.3221C64.0717 49.6701 63.8607 48.8583 63.8607 47.8867C63.8607 47.0685 64.011 46.3814 64.3114 45.8253C64.6118 45.2692 65.0209 44.8217 65.5387 44.483C66.0564 44.1442 66.6445 43.8885 67.3029 43.7159C67.9676 43.5433 68.6644 43.4219 69.3931 43.3516C70.2496 43.2621 70.9399 43.179 71.4641 43.1023C71.9882 43.0192 72.3686 42.8977 72.6051 42.7379C72.8416 42.5781 72.9598 42.3416 72.9598 42.0284V41.9709C72.9598 41.3636 72.7681 40.8938 72.3845 40.5614C72.0074 40.229 71.4705 40.0629 70.7737 40.0629C70.0387 40.0629 69.4538 40.2259 69.0191 40.5518C68.5845 40.8714 68.2968 41.2741 68.1562 41.7599L64.3785 41.4531C64.5703 40.5582 64.9474 39.7848 65.5099 39.1328C66.0724 38.4744 66.7979 37.9695 67.6864 37.6179C68.5813 37.2599 69.6168 37.081 70.7929 37.081C71.6111 37.081 72.3941 37.1768 73.142 37.3686C73.8963 37.5604 74.5642 37.8576 75.1459 38.2603C75.734 38.663 76.1974 39.1808 76.5362 39.8136C76.875 40.44 77.0443 41.1911 77.0443 42.0668V52H73.1708V49.9577H73.0557C72.8192 50.418 72.5028 50.8239 72.1065 51.1754C71.7102 51.5206 71.234 51.7923 70.6779 51.9904C70.1218 52.1822 69.4794 52.2781 68.7507 52.2781ZM69.9204 49.4592C70.5213 49.4592 71.0518 49.3409 71.512 49.1044C71.9723 48.8615 72.3334 48.5355 72.5955 48.1264C72.8576 47.7173 72.9886 47.2539 72.9886 46.7362V45.1733C72.8607 45.2564 72.685 45.3331 72.4612 45.4034C72.2439 45.4673 71.9978 45.5281 71.723 45.5856C71.4481 45.6367 71.1732 45.6847 70.8984 45.7294C70.6235 45.7678 70.3742 45.8029 70.1505 45.8349C69.6711 45.9052 69.2524 46.017 68.8945 46.1705C68.5365 46.3239 68.2585 46.5316 68.0603 46.7937C67.8622 47.0494 67.7631 47.369 67.7631 47.7525C67.7631 48.3086 67.9644 48.7337 68.3671 49.0277C68.7762 49.3153 69.294 49.4592 69.9204 49.4592ZM86.8673 52.2876C85.3588 52.2876 84.0612 51.968 82.9746 51.3288C81.8943 50.6832 81.0633 49.7884 80.4817 48.6442C79.9064 47.5 79.6187 46.1832 79.6187 44.6939C79.6187 43.1854 79.9096 41.8622 80.4913 40.7244C81.0793 39.5803 81.9135 38.6886 82.9937 38.0494C84.074 37.4038 85.3588 37.081 86.8481 37.081C88.1329 37.081 89.2579 37.3143 90.2231 37.7809C91.1883 38.2475 91.9522 38.9027 92.5147 39.7464C93.0772 40.5902 93.3872 41.581 93.4447 42.7188H89.5903C89.4817 41.9837 89.194 41.3924 88.7274 40.945C88.2672 40.4911 87.6631 40.2642 86.9153 40.2642C86.2824 40.2642 85.7295 40.4368 85.2565 40.782C84.7899 41.1207 84.4256 41.6161 84.1635 42.2681C83.9014 42.9201 83.7704 43.7095 83.7704 44.6364C83.7704 45.576 83.8982 46.375 84.1539 47.0334C84.416 47.6918 84.7835 48.1935 85.2565 48.5387C85.7295 48.8839 86.2824 49.0565 86.9153 49.0565C87.3819 49.0565 87.8006 48.9606 88.1713 48.7688C88.5484 48.5771 88.8584 48.299 89.1013 47.9347C89.3506 47.5639 89.5136 47.1197 89.5903 46.6019H93.4447C93.3808 47.7269 93.074 48.7177 92.5243 49.5742C91.981 50.4244 91.2299 51.0891 90.2711 51.5685C89.3123 52.0479 88.1777 52.2876 86.8673 52.2876ZM99.7609 47.7621L99.7705 42.8626H100.365L105.082 37.2727H109.771L103.433 44.6747H102.465L99.7609 47.7621ZM96.0599 52V32.3636H100.144V52H96.0599ZM105.264 52L100.931 45.5856L103.654 42.6996L110.049 52H105.264Z" fill="#09173E"/>
<defs>
<filter id="filter0_di_42_54" x="-35" y="-1.59521" width="233" height="165.438" filterUnits="userSpaceOnUse" color-interpolation-filters="sRGB">
<feFlood flood-opacity="0" result="BackgroundImageFix"/>
<feColorMatrix in="SourceAlpha" type="matrix" values="0 0 0 0 0 0 0 0 0 0 0 0 0 0 0 0 0 0 127 0" result="hardAlpha"/>
<feOffset dx="4" dy="38"/>
<feGaussianBlur stdDeviation="31"/>
<feColorMatrix type="matrix" values="0 0 0 0 0 0 0 0 0 0 0 0 0 0 0 0 0 0 0.5 0"/>
<feBlend mode="normal" in2="BackgroundImageFix" result="effect1_dropShadow_42_54"/>
<feBlend mode="normal" in="SourceGraphic" in2="effect1_dropShadow_42_54" result="shape"/>
<feColorMatrix in="SourceAlpha" type="matrix" values="0 0 0 0 0 0 0 0 0 0 0 0 0 0 0 0 0 0 127 0" result="hardAlpha"/>
<feOffset dx="-3" dy="-4"/>
<feGaussianBlur stdDeviation="3.5"/>
<feComposite in2="hardAlpha" operator="arithmetic" k2="-1" k3="1"/>
<feColorMatrix type="matrix" values="0 0 0 0 1 0 0 0 0 1 0 0 0 0 1 0 0 0 0.15 0"/>
<feBlend mode="normal" in2="shape" result="effect2_innerShadow_42_54"/>
</filter>
<radialGradient id="paint0_radial_42_54" cx="0" cy="0" r="1" gradientUnits="userSpaceOnUse" gradientTransform="translate(51.7639 31.0377) rotate(25.1831) scale(63.5699 50.0678)">
<stop stop-color="white" stop-opacity="0.59"/>
<stop offset="0.697917" stop-color="white" stop-opacity="0"/>
<stop offset="1" stop-color="white" stop-opacity="0"/>
</radialGradient>
<radialGradient id="paint1_radial_42_54" cx="0" cy="0" r="1" gradientUnits="userSpaceOnUse" gradientTransform="translate(117.068 58.6631) rotate(-99.578) scale(35.8953 102.743)">
<stop stop-opacity="0.23"/>
<stop offset="0.861815" stop-opacity="0"/>
</radialGradient>
</defs>
</svg>
