<svg width="249" height="57" viewBox="0 0 249 57" fill="none" xmlns="http://www.w3.org/2000/svg">
<rect y="5" width="249" height="47" rx="23.5" fill="#D9D9D9"/>
<path d="M30.6139 38H26.4946L35.7897 19.8182H40.7435L43.9928 38H39.8735L37.6629 23.973H37.5209L30.6139 38ZM31.555 30.8533H41.2851L40.7702 33.854H31.04L31.555 30.8533ZM52.7153 38H46.1812L49.1997 19.8182H55.6095C57.4383 19.8182 58.9564 20.1911 60.1638 20.9368C61.3771 21.6825 62.2323 22.7508 62.7295 24.1417C63.2267 25.5266 63.3154 27.1809 62.9958 29.1044C62.6881 30.9628 62.0755 32.5579 61.1581 33.8896C60.2407 35.2153 59.0659 36.2333 57.6336 36.9435C56.2013 37.6478 54.5619 38 52.7153 38ZM50.5757 34.7063H52.9372C54.0795 34.7063 55.0798 34.4933 55.9379 34.0671C56.8021 33.641 57.5093 32.984 58.0597 32.0962C58.6161 31.2085 59.0097 30.0721 59.2405 28.6871C59.4595 27.3732 59.4447 26.3079 59.1961 25.4911C58.9535 24.6684 58.4829 24.0677 57.7845 23.6889C57.0861 23.3042 56.1688 23.1119 55.0324 23.1119H52.5022L50.5757 34.7063ZM70.9038 38H64.3697L67.3881 19.8182H73.7979C75.6268 19.8182 77.1449 20.1911 78.3523 20.9368C79.5656 21.6825 80.4208 22.7508 80.918 24.1417C81.4151 25.5266 81.5039 27.1809 81.1843 29.1044C80.8765 30.9628 80.264 32.5579 79.3466 33.8896C78.4292 35.2153 77.2544 36.2333 75.8221 36.9435C74.3898 37.6478 72.7504 38 70.9038 38ZM68.7642 34.7063H71.1257C72.268 34.7063 73.2682 34.4933 74.1264 34.0671C74.9905 33.641 75.6978 32.984 76.2482 32.0962C76.8046 31.2085 77.1982 30.0721 77.429 28.6871C77.648 27.3732 77.6332 26.3079 77.3846 25.4911C77.1419 24.6684 76.6714 24.0677 75.973 23.6889C75.2746 23.3042 74.3572 23.1119 73.2209 23.1119H70.6907L68.7642 34.7063ZM88.3443 38L91.3627 19.8182H98.536C99.9092 19.8182 101.037 20.0816 101.919 20.6083C102.806 21.1291 103.428 21.8542 103.783 22.7834C104.144 23.7067 104.227 24.772 104.031 25.9794C103.83 27.1927 103.392 28.261 102.718 29.1843C102.049 30.1017 101.179 30.8178 100.107 31.3327C99.0362 31.8477 97.7992 32.1051 96.3965 32.1051H91.8244L92.3304 29.0245H96.2811C97.0268 29.0245 97.6631 28.8973 98.1898 28.6428C98.7225 28.3823 99.1457 28.0243 99.4593 27.5685C99.773 27.1069 99.9772 26.5772 100.072 25.9794C100.173 25.3698 100.14 24.8401 99.9743 24.3903C99.8085 23.9405 99.5037 23.5913 99.0598 23.3427C98.6219 23.0882 98.033 22.9609 97.2931 22.9609H94.7008L92.1884 38H88.3443ZM122.713 29.1577C122.381 31.099 121.739 32.7473 120.786 34.1026C119.839 35.458 118.682 36.4878 117.315 37.1921C115.954 37.8964 114.486 38.2486 112.911 38.2486C111.26 38.2486 109.837 37.8728 108.641 37.1211C107.452 36.3694 106.59 35.2834 106.058 33.8629C105.525 32.4366 105.425 30.7172 105.756 28.7049C106.076 26.7577 106.712 25.1064 107.665 23.7511C108.618 22.3898 109.781 21.354 111.154 20.6438C112.527 19.9277 114.003 19.5696 115.584 19.5696C117.223 19.5696 118.638 19.9484 119.827 20.706C121.023 21.4635 121.884 22.5585 122.411 23.9908C122.943 25.4171 123.044 27.1394 122.713 29.1577ZM118.886 28.7049C119.093 27.4561 119.085 26.4085 118.86 25.5621C118.641 24.7099 118.238 24.0647 117.652 23.6268C117.066 23.1888 116.326 22.9698 115.433 22.9698C114.462 22.9698 113.571 23.2125 112.761 23.6978C111.956 24.1831 111.275 24.8874 110.719 25.8107C110.168 26.7281 109.786 27.8437 109.573 29.1577C109.36 30.4124 109.366 31.46 109.591 32.3004C109.822 33.1409 110.233 33.7771 110.825 34.2092C111.423 34.6353 112.166 34.8484 113.054 34.8484C114.018 34.8484 114.9 34.6116 115.699 34.1381C116.504 33.6587 117.182 32.9633 117.732 32.0518C118.283 31.1345 118.667 30.0188 118.886 28.7049ZM130.621 38H124.086L127.105 19.8182H133.515C135.344 19.8182 136.862 20.1911 138.069 20.9368C139.282 21.6825 140.138 22.7508 140.635 24.1417C141.132 25.5266 141.221 27.1809 140.901 29.1044C140.593 30.9628 139.981 32.5579 139.063 33.8896C138.146 35.2153 136.971 36.2333 135.539 36.9435C134.107 37.6478 132.467 38 130.621 38ZM128.481 34.7063H130.843C131.985 34.7063 132.985 34.4933 133.843 34.0671C134.707 33.641 135.415 32.984 135.965 32.0962C136.521 31.2085 136.915 30.0721 137.146 28.6871C137.365 27.3732 137.35 26.3079 137.101 25.4911C136.859 24.6684 136.388 24.0677 135.69 23.6889C134.991 23.3042 134.074 23.1119 132.938 23.1119H130.407L128.481 34.7063ZM160.261 26.1836H156.426C156.438 25.6746 156.373 25.2248 156.231 24.8342C156.089 24.4376 155.876 24.1003 155.592 23.8221C155.314 23.5439 154.973 23.3338 154.571 23.1918C154.168 23.0438 153.716 22.9698 153.212 22.9698C152.242 22.9698 151.351 23.2125 150.54 23.6978C149.729 24.1831 149.046 24.8874 148.489 25.8107C147.933 26.7281 147.548 27.8378 147.335 29.1399C147.128 30.3946 147.14 31.4452 147.371 32.2915C147.602 33.1379 148.01 33.7771 148.596 34.2092C149.188 34.6353 149.925 34.8484 150.807 34.8484C151.351 34.8484 151.869 34.7803 152.36 34.6442C152.851 34.5021 153.298 34.3009 153.701 34.0405C154.109 33.7741 154.464 33.4516 154.766 33.0728C155.074 32.694 155.314 32.2649 155.485 31.7855H159.347C159.104 32.62 158.726 33.425 158.211 34.2003C157.702 34.9756 157.071 35.6681 156.32 36.2777C155.568 36.8814 154.713 37.3608 153.754 37.7159C152.795 38.071 151.745 38.2486 150.602 38.2486C148.951 38.2486 147.534 37.8698 146.35 37.1122C145.172 36.3546 144.323 35.2627 143.802 33.8363C143.281 32.4099 143.183 30.6906 143.509 28.6783C143.834 26.7311 144.471 25.0798 145.418 23.7244C146.371 22.3632 147.528 21.3304 148.889 20.6261C150.256 19.9218 151.718 19.5696 153.275 19.5696C154.358 19.5696 155.337 19.7176 156.213 20.0135C157.089 20.3094 157.835 20.7415 158.45 21.3097C159.072 21.8719 159.539 22.5614 159.853 23.3782C160.167 24.195 160.303 25.1301 160.261 26.1836ZM173.068 25.1005C173.097 24.3607 172.881 23.7895 172.42 23.3871C171.964 22.9846 171.274 22.7834 170.351 22.7834C169.724 22.7834 169.179 22.8722 168.718 23.0497C168.256 23.2214 167.886 23.4611 167.608 23.7688C167.336 24.0707 167.167 24.4199 167.102 24.8164C167.037 25.1419 167.057 25.426 167.164 25.6687C167.276 25.9113 167.451 26.1214 167.688 26.299C167.93 26.4706 168.217 26.6216 168.549 26.7518C168.88 26.8761 169.233 26.9826 169.605 27.0714L171.168 27.462C171.931 27.6396 172.618 27.8763 173.228 28.1722C173.843 28.4682 174.358 28.8321 174.772 29.2642C175.193 29.6963 175.488 30.2053 175.66 30.7912C175.832 31.3771 175.855 32.0489 175.731 32.8065C175.542 33.9192 175.101 34.8839 174.408 35.7006C173.716 36.5115 172.807 37.1418 171.683 37.5916C170.558 38.0355 169.256 38.2575 167.777 38.2575C166.309 38.2575 165.069 38.0326 164.057 37.5827C163.045 37.1329 162.308 36.4671 161.846 35.5852C161.39 34.6974 161.254 33.5996 161.438 32.2915H165.158C165.092 32.9012 165.181 33.4102 165.424 33.8185C165.672 34.221 166.042 34.5258 166.534 34.733C167.025 34.9342 167.602 35.0348 168.265 35.0348C168.922 35.0348 169.505 34.9401 170.014 34.7507C170.529 34.5613 170.946 34.2979 171.266 33.9606C171.585 33.6232 171.78 33.2356 171.851 32.7976C171.922 32.3892 171.86 32.0459 171.665 31.7678C171.47 31.4896 171.156 31.2528 170.724 31.0575C170.298 30.8563 169.768 30.6787 169.135 30.5249L167.235 30.0277C165.767 29.6548 164.657 29.0719 163.906 28.2788C163.154 27.4857 162.885 26.4174 163.098 25.0739C163.287 23.973 163.746 23.0112 164.474 22.1886C165.208 21.36 166.131 20.7178 167.244 20.2621C168.362 19.8004 169.585 19.5696 170.91 19.5696C172.26 19.5696 173.399 19.8034 174.328 20.271C175.258 20.7326 175.935 21.3777 176.361 22.2063C176.788 23.0349 176.918 23.9996 176.752 25.1005H173.068ZM180.174 38H176.055L185.35 19.8182H190.304L193.553 38H189.434L187.223 23.973H187.081L180.174 38ZM181.116 30.8533H190.846L190.331 33.854H180.601L181.116 30.8533ZM207.321 25.1005C207.35 24.3607 207.134 23.7895 206.673 23.3871C206.217 22.9846 205.527 22.7834 204.604 22.7834C203.977 22.7834 203.432 22.8722 202.971 23.0497C202.509 23.2214 202.139 23.4611 201.861 23.7688C201.589 24.0707 201.42 24.4199 201.355 24.8164C201.29 25.1419 201.31 25.426 201.417 25.6687C201.529 25.9113 201.704 26.1214 201.941 26.299C202.183 26.4706 202.47 26.6216 202.802 26.7518C203.133 26.8761 203.485 26.9826 203.858 27.0714L205.421 27.462C206.184 27.6396 206.871 27.8763 207.48 28.1722C208.096 28.4682 208.611 28.8321 209.025 29.2642C209.445 29.6963 209.741 30.2053 209.913 30.7912C210.085 31.3771 210.108 32.0489 209.984 32.8065C209.795 33.9192 209.354 34.8839 208.661 35.7006C207.969 36.5115 207.06 37.1418 205.936 37.5916C204.811 38.0355 203.509 38.2575 202.029 38.2575C200.562 38.2575 199.322 38.0326 198.31 37.5827C197.298 37.1329 196.561 36.4671 196.099 35.5852C195.643 34.6974 195.507 33.5996 195.691 32.2915H199.411C199.345 32.9012 199.434 33.4102 199.677 33.8185C199.925 34.221 200.295 34.5258 200.787 34.733C201.278 34.9342 201.855 35.0348 202.518 35.0348C203.175 35.0348 203.758 34.9401 204.267 34.7507C204.782 34.5613 205.199 34.2979 205.518 33.9606C205.838 33.6232 206.033 33.2356 206.104 32.7976C206.175 32.3892 206.113 32.0459 205.918 31.7678C205.723 31.4896 205.409 31.2528 204.977 31.0575C204.551 30.8563 204.021 30.6787 203.388 30.5249L201.488 30.0277C200.02 29.6548 198.91 29.0719 198.159 28.2788C197.407 27.4857 197.138 26.4174 197.351 25.0739C197.54 23.973 197.999 23.0112 198.727 22.1886C199.461 21.36 200.384 20.7178 201.497 20.2621C202.615 19.8004 203.838 19.5696 205.163 19.5696C206.513 19.5696 207.652 19.8034 208.581 20.271C209.511 20.7326 210.188 21.3777 210.614 22.2063C211.04 23.0349 211.171 23.9996 211.005 25.1005H207.321ZM213.502 22.9876L214.035 19.8182H228.967L228.434 22.9876H222.868L220.382 38H216.582L219.068 22.9876H213.502Z" fill="#09173E"/>
</svg>
