<svg width="25" height="29" viewBox="0 0 25 29" fill="none" xmlns="http://www.w3.org/2000/svg">
<path d="M22.5915 3.54187L17.306 3.53299L17.3075 2.65701C17.31 1.20561 16.0212 0.0268926 14.4289 0.0242176L10.5849 0.0177596C8.99267 0.0150845 7.69995 1.18947 7.69751 2.64086L7.69604 3.51684L2.41053 3.50796C1.08369 3.50573 0.00638206 4.48442 0.00435014 5.69388L0.0014068 7.44584C0.000593974 7.92966 0.430163 8.32255 0.960936 8.32344L24.025 8.36219C24.5557 8.36308 24.9866 7.97164 24.9874 7.48782L24.9904 5.73586C24.9924 4.5264 23.9184 3.5441 22.5915 3.54187ZM9.61951 2.64409C9.62032 2.1612 10.0522 1.76883 10.582 1.76972L14.426 1.77618C14.9557 1.77707 15.3863 2.17089 15.3855 2.65378L15.384 3.52976L9.61804 3.52007L9.61951 2.64409Z" fill="#09173E"/>
<path d="M1.95949 9.98927C1.79024 9.98898 1.65514 10.1219 1.66294 10.2811L2.41948 25.7461C2.4894 27.1774 3.73602 28.3003 5.25723 28.3029L19.6619 28.327C21.1831 28.3296 22.4335 27.2109 22.5083 25.7799L23.3168 10.3175C23.3251 10.1583 23.1905 10.0249 23.0212 10.0246L1.95949 9.98927ZM16.2807 12.246C16.2816 11.7526 16.7067 11.3536 17.2308 11.3545C17.7549 11.3554 18.1786 11.7558 18.1778 12.2492L18.1583 23.8591C18.1575 24.3526 17.7323 24.7515 17.2083 24.7506C16.6842 24.7497 16.2604 24.3494 16.2612 23.856L16.2807 12.246ZM11.5381 12.238C11.5389 11.7446 11.964 11.3457 12.4881 11.3466C13.0122 11.3474 13.436 11.7478 13.4351 12.2412L13.4156 23.8512C13.4148 24.3446 12.9896 24.7435 12.4656 24.7427C11.9415 24.7418 11.5177 24.3414 11.5186 23.848L11.5381 12.238ZM6.7954 12.2301C6.79623 11.7367 7.22137 11.3377 7.74544 11.3386C8.2695 11.3395 8.6933 11.7398 8.69247 12.2333L8.67295 23.8432C8.67212 24.3366 8.24698 24.7356 7.72291 24.7347C7.19885 24.7338 6.77505 24.3335 6.77588 23.84L6.7954 12.2301Z" fill="#09173E"/>
</svg>
