<svg width="136" height="34" viewBox="0 0 136 34" fill="none" xmlns="http://www.w3.org/2000/svg">
<rect y="3" width="136" height="28" rx="14" fill="#09173E"/>
<path d="M18.1494 11.0909L19.4171 19.3793H19.5183L23.5293 11.0909H26.0862L20.5144 22H17.5421L15.5872 11.0909H18.1494ZM25.5455 22L26.9091 13.8182H29.1783L27.8147 22H25.5455ZM28.2781 12.7528C27.9407 12.7528 27.662 12.641 27.4418 12.4173C27.2252 12.19 27.1364 11.9201 27.1755 11.6076C27.2145 11.288 27.3672 11.0181 27.6336 10.7979C27.8999 10.5742 28.2017 10.4624 28.5391 10.4624C28.8765 10.4624 29.1517 10.5742 29.3647 10.7979C29.5778 11.0181 29.6666 11.288 29.6311 11.6076C29.5956 11.9201 29.4446 12.19 29.1783 12.4173C28.9155 12.641 28.6155 12.7528 28.2781 12.7528ZM33.3398 22.1598C32.5017 22.1598 31.8075 21.9893 31.2571 21.6484C30.7066 21.304 30.3196 20.8175 30.0958 20.1889C29.8757 19.5568 29.8384 18.8093 29.984 17.9464C30.126 17.1048 30.4119 16.3661 30.8416 15.7305C31.2748 15.0948 31.8181 14.5994 32.4715 14.2443C33.125 13.8892 33.8529 13.7116 34.6555 13.7116C35.1953 13.7116 35.6835 13.7987 36.1203 13.9727C36.5607 14.1431 36.9264 14.4023 37.2176 14.7504C37.5088 15.0948 37.7077 15.5263 37.8142 16.0447C37.9243 16.5632 37.9225 17.1705 37.8089 17.8665L37.7077 18.4897H30.8043L31.0227 17.0835H35.7954C35.8487 16.7567 35.8274 16.4673 35.7315 16.2152C35.6356 15.9631 35.4758 15.766 35.2521 15.6239C35.0284 15.4783 34.7532 15.4055 34.4264 15.4055C34.0926 15.4055 33.7801 15.4872 33.4889 15.6506C33.1978 15.8139 32.9527 16.0288 32.7539 16.2951C32.5585 16.5579 32.4325 16.8437 32.3757 17.1527L32.1253 18.5483C32.0543 18.978 32.0685 19.3349 32.1679 19.619C32.2709 19.9031 32.4485 20.1161 32.7006 20.2582C32.9527 20.3967 33.2723 20.4659 33.6594 20.4659C33.9115 20.4659 34.1477 20.4304 34.3679 20.3594C34.5916 20.2884 34.7904 20.1836 34.9644 20.0451C35.1384 19.9031 35.2805 19.7273 35.3906 19.5178L37.4627 19.6562C37.2709 20.1605 36.9797 20.6009 36.5891 20.9773C36.1985 21.3501 35.7279 21.6413 35.1775 21.8509C34.6306 22.0568 34.0181 22.1598 33.3398 22.1598ZM40.1673 22L39.3044 13.8182H41.6002L41.9517 19.3153H42.0263L44.2635 13.8182H46.5167L46.9429 19.2834H47.0121L49.1748 13.8182H51.4652L47.8804 22H45.478L44.9241 16.8544H44.8228L42.5643 22H40.1673ZM54.8264 22L56.6375 11.0909H63.9883L63.6687 12.9925H58.6243L58.1982 15.592H62.8644L62.5448 17.4936H57.8786L57.4525 20.0984H62.5182L62.1986 22H54.8264ZM63.473 25.0682L65.3586 13.8182H67.5958L67.3668 15.1925H67.468C67.6029 14.9723 67.7823 14.7486 68.006 14.5213C68.2333 14.2905 68.5156 14.0987 68.8529 13.946C69.1903 13.7898 69.5862 13.7116 70.0408 13.7116C70.6409 13.7116 71.1647 13.8679 71.6122 14.1804C72.0596 14.4893 72.3828 14.9563 72.5816 15.5813C72.784 16.2028 72.8071 16.9822 72.6509 17.9197C72.5017 18.8324 72.2265 19.603 71.8252 20.2315C71.4275 20.8565 70.9499 21.3306 70.3924 21.6538C69.8384 21.9734 69.2507 22.1332 68.6292 22.1332C68.1889 22.1332 67.8267 22.0604 67.5426 21.9148C67.262 21.7692 67.0436 21.5863 66.8874 21.3661C66.7311 21.1424 66.621 20.9169 66.5571 20.6896H66.4719L65.7475 25.0682H63.473ZM66.898 17.9091C66.8199 18.3956 66.8164 18.82 66.8874 19.1822C66.962 19.5444 67.1111 19.8267 67.3348 20.0291C67.5585 20.228 67.8533 20.3274 68.2191 20.3274C68.5884 20.3274 68.9169 20.2262 69.2045 20.0238C69.4921 19.8178 69.7318 19.5337 69.9236 19.1715C70.1154 18.8058 70.2521 18.3849 70.3338 17.9091C70.4083 17.4368 70.4101 17.0213 70.3391 16.6626C70.2681 16.304 70.1225 16.0234 69.9023 15.821C69.6821 15.6186 69.3838 15.5174 69.0074 15.5174C68.6416 15.5174 68.3132 15.6151 68.022 15.8104C67.7343 16.0057 67.4946 16.2827 67.3029 16.6413C67.1111 17 66.9762 17.4226 66.898 17.9091ZM73.4752 22L74.8388 13.8182H77.108L75.7444 22H73.4752ZM76.2078 12.7528C75.8704 12.7528 75.5917 12.641 75.3715 12.4173C75.1549 12.19 75.0661 11.9201 75.1052 11.6076C75.1442 11.288 75.2969 11.0181 75.5633 10.7979C75.8296 10.5742 76.1314 10.4624 76.4688 10.4624C76.8062 10.4624 77.0814 10.5742 77.2944 10.7979C77.5075 11.0181 77.5963 11.288 77.5608 11.6076C77.5253 11.9201 77.3743 12.19 77.108 12.4173C76.8452 12.641 76.5451 12.7528 76.2078 12.7528ZM85.3338 16.1513L83.2723 16.2791C83.2617 16.098 83.212 15.9364 83.1232 15.7944C83.038 15.6488 82.9119 15.5334 82.745 15.4482C82.5816 15.3629 82.3757 15.3203 82.1271 15.3203C81.7542 15.3203 81.4222 15.4055 81.131 15.576C80.8398 15.7464 80.6747 15.9648 80.6356 16.2312C80.6036 16.4016 80.648 16.5455 80.7688 16.6626C80.8895 16.7798 81.1328 16.8793 81.4985 16.9609L82.9367 17.2592C83.7038 17.4226 84.2578 17.6942 84.5987 18.0742C84.9431 18.4542 85.0657 18.9513 84.9662 19.5657C84.8774 20.0877 84.6484 20.544 84.2791 20.9347C83.9098 21.3217 83.441 21.6236 82.8728 21.8402C82.3046 22.0533 81.6743 22.1598 80.9818 22.1598C79.8703 22.1598 79.0252 21.9325 78.4463 21.478C77.8675 21.0234 77.5887 20.4073 77.61 19.6296L79.826 19.5124C79.8437 19.8462 79.9609 20.0984 80.1775 20.2688C80.3941 20.4357 80.6907 20.521 81.0671 20.5245C81.4897 20.5316 81.8483 20.4446 82.1431 20.2635C82.4414 20.0788 82.61 19.8551 82.6491 19.5923C82.6775 19.4077 82.6242 19.2585 82.4893 19.1449C82.3579 19.0312 82.1164 18.9371 81.7649 18.8626L80.4012 18.5803C79.6271 18.4205 79.0713 18.1346 78.734 17.7227C78.3966 17.3107 78.2812 16.7869 78.3877 16.1513C78.473 15.6435 78.6843 15.2085 79.0216 14.8462C79.3625 14.4805 79.8011 14.1999 80.3373 14.0046C80.8771 13.8093 81.4861 13.7116 82.1644 13.7116C83.2262 13.7116 84.0252 13.93 84.5614 14.3668C85.1012 14.8036 85.3586 15.3984 85.3338 16.1513ZM89.6923 22.1598C88.8578 22.1598 88.1671 21.9822 87.6203 21.6271C87.0734 21.2685 86.6881 20.7713 86.4644 20.1357C86.2442 19.4964 86.2033 18.7525 86.3418 17.9038C86.4768 17.0657 86.7573 16.3324 87.1835 15.7038C87.6096 15.0753 88.1511 14.587 88.8081 14.239C89.4651 13.8874 90.2055 13.7116 91.0293 13.7116C91.8603 13.7116 92.5492 13.891 93.0961 14.2496C93.643 14.6048 94.0283 15.1019 94.252 15.7411C94.4757 16.3803 94.5183 17.1243 94.3798 17.973C94.2413 18.8075 93.9573 19.5391 93.5276 20.1676C93.0979 20.7962 92.5563 21.2862 91.9029 21.6378C91.2495 21.9858 90.5127 22.1598 89.6923 22.1598ZM89.9161 20.402C90.2996 20.402 90.6387 20.2937 90.9335 20.0771C91.2318 19.8569 91.4786 19.5586 91.6739 19.1822C91.8727 18.8022 92.0112 18.3725 92.0894 17.8931C92.1675 17.4208 92.1728 17.0018 92.1053 16.636C92.0379 16.2667 91.8958 15.9755 91.6792 15.7624C91.4661 15.5494 91.1732 15.4428 90.8003 15.4428C90.4168 15.4428 90.0759 15.5529 89.7776 15.7731C89.4793 15.9897 89.2325 16.288 89.0372 16.668C88.8418 17.0479 88.7051 17.4794 88.627 17.9624C88.5524 18.4311 88.5471 18.8501 88.611 19.2195C88.6749 19.5852 88.8152 19.8746 89.0318 20.0877C89.2484 20.2972 89.5432 20.402 89.9161 20.402ZM98.1884 22.1332C97.5634 22.1332 97.0254 21.9734 96.5744 21.6538C96.127 21.3306 95.8074 20.8565 95.6156 20.2315C95.4274 19.603 95.4097 18.8324 95.5624 17.9197C95.7186 16.9822 95.9992 16.2028 96.404 15.5813C96.8088 14.9563 97.2882 14.4893 97.8422 14.1804C98.3962 13.8679 98.9732 13.7116 99.5734 13.7116C100.028 13.7116 100.395 13.7898 100.676 13.946C100.96 14.0987 101.178 14.2905 101.331 14.5213C101.484 14.7486 101.59 14.9723 101.651 15.1925H101.72L102.407 11.0909H104.671L102.86 22H100.623L100.841 20.6896H100.745C100.603 20.9169 100.415 21.1424 100.181 21.3661C99.9498 21.5863 99.6693 21.7692 99.339 21.9148C99.0123 22.0604 98.6288 22.1332 98.1884 22.1332ZM99.1899 20.3274C99.5521 20.3274 99.8788 20.228 100.17 20.0291C100.461 19.8267 100.706 19.5444 100.905 19.1822C101.104 18.82 101.242 18.3956 101.321 17.9091C101.402 17.4226 101.404 17 101.326 16.6413C101.248 16.2827 101.095 16.0057 100.868 15.8104C100.644 15.6151 100.348 15.5174 99.9782 15.5174C99.6053 15.5174 99.2751 15.6186 98.9874 15.821C98.7033 16.0234 98.4672 16.304 98.279 16.6626C98.0943 17.0213 97.9629 17.4368 97.8848 17.9091C97.8067 18.3849 97.8014 18.8058 97.8688 19.1715C97.9363 19.5337 98.0801 19.8178 98.3003 20.0238C98.5205 20.2262 98.817 20.3274 99.1899 20.3274ZM108.428 22.1598C107.59 22.1598 106.895 21.9893 106.345 21.6484C105.795 21.304 105.407 20.8175 105.184 20.1889C104.964 19.5568 104.926 18.8093 105.072 17.9464C105.214 17.1048 105.5 16.3661 105.929 15.7305C106.363 15.0948 106.906 14.5994 107.559 14.2443C108.213 13.8892 108.941 13.7116 109.743 13.7116C110.283 13.7116 110.771 13.7987 111.208 13.9727C111.649 14.1431 112.014 14.4023 112.306 14.7504C112.597 15.0948 112.796 15.5263 112.902 16.0447C113.012 16.5632 113.01 17.1705 112.897 17.8665L112.796 18.4897H105.892L106.111 17.0835H110.883C110.937 16.7567 110.915 16.4673 110.819 16.2152C110.723 15.9631 110.564 15.766 110.34 15.6239C110.116 15.4783 109.841 15.4055 109.514 15.4055C109.181 15.4055 108.868 15.4872 108.577 15.6506C108.286 15.8139 108.041 16.0288 107.842 16.2951C107.646 16.5579 107.52 16.8437 107.464 17.1527L107.213 18.5483C107.142 18.978 107.156 19.3349 107.256 19.619C107.359 19.9031 107.536 20.1161 107.788 20.2582C108.041 20.3967 108.36 20.4659 108.747 20.4659C108.999 20.4659 109.236 20.4304 109.456 20.3594C109.679 20.2884 109.878 20.1836 110.052 20.0451C110.226 19.9031 110.368 19.7273 110.478 19.5178L112.551 19.6562C112.359 20.1605 112.068 20.6009 111.677 20.9773C111.286 21.3501 110.816 21.6413 110.265 21.8509C109.719 22.0568 109.106 22.1598 108.428 22.1598ZM121.471 16.1513L119.41 16.2791C119.399 16.098 119.35 15.9364 119.261 15.7944C119.176 15.6488 119.05 15.5334 118.883 15.4482C118.719 15.3629 118.513 15.3203 118.265 15.3203C117.892 15.3203 117.56 15.4055 117.269 15.576C116.977 15.7464 116.812 15.9648 116.773 16.2312C116.741 16.4016 116.786 16.5455 116.906 16.6626C117.027 16.7798 117.27 16.8793 117.636 16.9609L119.074 17.2592C119.841 17.4226 120.395 17.6942 120.736 18.0742C121.081 18.4542 121.203 18.9513 121.104 19.5657C121.015 20.0877 120.786 20.544 120.417 20.9347C120.047 21.3217 119.579 21.6236 119.011 21.8402C118.442 22.0533 117.812 22.1598 117.12 22.1598C116.008 22.1598 115.163 21.9325 114.584 21.478C114.005 21.0234 113.726 20.4073 113.748 19.6296L115.964 19.5124C115.981 19.8462 116.099 20.0984 116.315 20.2688C116.532 20.4357 116.828 20.521 117.205 20.5245C117.627 20.5316 117.986 20.4446 118.281 20.2635C118.579 20.0788 118.748 19.8551 118.787 19.5923C118.815 19.4077 118.762 19.2585 118.627 19.1449C118.496 19.0312 118.254 18.9371 117.903 18.8626L116.539 18.5803C115.765 18.4205 115.209 18.1346 114.872 17.7227C114.534 17.3107 114.419 16.7869 114.525 16.1513C114.611 15.6435 114.822 15.2085 115.159 14.8462C115.5 14.4805 115.939 14.1999 116.475 14.0046C117.015 13.8093 117.624 13.7116 118.302 13.7116C119.364 13.7116 120.163 13.93 120.699 14.3668C121.239 14.8036 121.496 15.3984 121.471 16.1513Z" fill="white"/>
</svg>
