<svg width="84" height="84" viewBox="0 0 84 84" fill="none" xmlns="http://www.w3.org/2000/svg">
<g clip-path="url(#clip0_30_84)">
<circle cx="42" cy="42" r="41.4588" fill="#AF8C90"/>
<path d="M34.1067 24.7383C34.1067 22.8144 35.6662 21.2549 37.5901 21.2549H43.0612C44.985 21.2549 46.5445 22.8144 46.5445 24.7383V29.1984C46.5445 29.3908 46.3886 29.5468 46.1962 29.5468H34.455C34.2626 29.5468 34.1067 29.3908 34.1067 29.1984V24.7383Z" fill="white"/>
<path d="M34.1067 31.9677C34.1067 31.7753 34.2626 31.6193 34.455 31.6193H46.1962C46.3886 31.6193 46.5445 31.7753 46.5445 31.9677V47.1666V55.7736C46.5445 56.2355 46.361 56.6785 46.0344 57.0052L40.5719 62.4676C40.4359 62.6037 40.2153 62.6037 40.0793 62.4676L34.6168 57.0052C34.2902 56.6785 34.1067 56.2355 34.1067 55.7736V47.1666V31.9677Z" fill="white"/>
<path d="M61.0395 37.8542H51.2029C50.2432 37.8542 49.4626 38.6471 49.4626 39.622C49.4626 40.5988 50.2432 41.3898 51.2029 41.3898H61.0395C61.9992 41.3898 62.7798 40.5988 62.7798 39.622C62.7798 38.6471 61.9992 37.8542 61.0395 37.8542" fill="white"/>
<path d="M57.8889 44.5403L57.8889 34.7037C57.8889 33.744 57.096 32.9634 56.1211 32.9634C55.1443 32.9634 54.3533 33.744 54.3533 34.7037L54.3533 44.5403C54.3533 45.5 55.1443 46.2806 56.1211 46.2806C57.096 46.2806 57.8889 45.5 57.8889 44.5403" fill="white"/>
</g>
<defs>
<clipPath id="clip0_30_84">
<rect width="84" height="84" rx="16.5835" fill="white"/>
</clipPath>
</defs>
</svg>
